<?xml version="1.0" encoding="UTF-8" standalone="no"?>
<!-- Created with Inkscape (http://www.inkscape.org/) -->

<svg
   width="3in"
   height="3in"
   viewBox="0 0 300 300"
   version="1.1"
   id="svg1"
   inkscape:version="1.4 (86a8ad7, 2024-10-11)"
   sodipodi:docname="gesturely.svg"
   inkscape:export-filename="gesturely.png"
   inkscape:export-xdpi="300"
   inkscape:export-ydpi="300"
   xmlns:inkscape="http://www.inkscape.org/namespaces/inkscape"
   xmlns:sodipodi="http://sodipodi.sourceforge.net/DTD/sodipodi-0.dtd"
   xmlns="http://www.w3.org/2000/svg"
   xmlns:svg="http://www.w3.org/2000/svg">
  <sodipodi:namedview
     id="namedview1"
     pagecolor="#ffffff"
     bordercolor="#000000"
     borderopacity="0.25"
     inkscape:showpageshadow="2"
     inkscape:pageopacity="0.0"
     inkscape:pagecheckerboard="false"
     inkscape:deskcolor="#d1d1d1"
     inkscape:document-units="mm"
     inkscape:zoom="2.9606623"
     inkscape:cx="147.60211"
     inkscape:cy="160.94372"
     inkscape:window-width="2560"
     inkscape:window-height="1377"
     inkscape:window-x="1432"
     inkscape:window-y="487"
     inkscape:window-maximized="1"
     inkscape:current-layer="layer1"
     showguides="true">
    <sodipodi:guide
       position="124.4374,65.857381"
       orientation="-1,0"
       id="guide3"
       inkscape:locked="false"
       inkscape:label=""
       inkscape:color="rgb(0,134,229)" />
    <sodipodi:guide
       position="175.56257,65.857381"
       orientation="-1,0"
       id="guide4"
       inkscape:locked="false"
       inkscape:label=""
       inkscape:color="rgb(0,134,229)" />
  </sodipodi:namedview>
  <defs
     id="defs1">
    <inkscape:path-effect
       effect="fillet_chamfer"
       id="path-effect6"
       is_visible="true"
       lpeversion="1"
       nodesatellites_param="F,0,0,1,0,1.2153717,0,1 @ F,0,0,1,0,1.2153717,0,1 @ F,0,0,1,0,1.2153717,0,1 @ F,0,0,1,0,1.2153717,0,1 @ F,0,0,1,0,1.2153717,0,1 @ F,0,0,1,0,1.2153717,0,1 @ F,0,0,1,0,1.2153717,0,1"
       radius="5"
       unit="px"
       method="auto"
       mode="F"
       chamfer_steps="1"
       flexible="false"
       use_knot_distance="true"
       apply_no_radius="true"
       apply_with_radius="true"
       only_selected="false"
       hide_knots="false" />
    <inkscape:path-effect
       effect="fillet_chamfer"
       id="path-effect5"
       is_visible="true"
       lpeversion="1"
       nodesatellites_param="F,0,0,1,0,5.2083331,0,1 @ F,0,0,1,0,5.2083331,0,1 @ F,0,0,1,0,5.2083331,0,1 @ F,0,0,1,0,5.2083331,0,1 @ F,0,0,1,0,5.2083331,0,1 @ F,0,0,1,0,5.2083331,0,1"
       radius="5"
       unit="px"
       method="auto"
       mode="F"
       chamfer_steps="1"
       flexible="false"
       use_knot_distance="true"
       apply_no_radius="true"
       apply_with_radius="true"
       only_selected="false"
       hide_knots="false" />
    <inkscape:path-effect
       effect="mirror_symmetry"
       start_point="226.14474,111.60461"
       end_point="226.14474,411.60461"
       center_point="226.14474,261.60461"
       id="path-effect4"
       is_visible="true"
       lpeversion="1.2"
       lpesatellites=""
       mode="vertical"
       discard_orig_path="false"
       fuse_paths="false"
       oposite_fuse="false"
       split_items="false"
       split_open="false"
       link_styles="false" />
    <clipPath
       clipPathUnits="userSpaceOnUse"
       id="clipPath5">
      <rect
         style="opacity:0.503546;fill:#000000;fill-opacity:1;stroke:#000000;stroke-width:0.817631;stroke-linecap:butt;stroke-linejoin:round;stroke-dasharray:none;stroke-opacity:1"
         id="rect5"
         width="59.182369"
         height="29.182369"
         x="75.408806"
         y="95.408813" />
    </clipPath>
    <clipPath
       clipPathUnits="userSpaceOnUse"
       id="clipPath41">
      <circle
         style="opacity:1;fill:#080808;fill-opacity:1;stroke:none;stroke-width:6.06401;stroke-linecap:butt;stroke-linejoin:round;stroke-dasharray:none;stroke-opacity:1;paint-order:stroke fill markers"
         id="circle42"
         cx="40"
         cy="18.999998"
         r="4.0999999" />
    </clipPath>
  </defs>
  <g
     inkscape:label="Layer 1"
     inkscape:groupmode="layer"
     id="layer1"
     transform="translate(-83.609939,-101.6968)"
     style="display:inline">
    <path
       style="display:inline;opacity:1;fill:#449dd1;fill-opacity:1;stroke:none;stroke-width:19.685;stroke-linecap:butt;stroke-linejoin:round;stroke-dasharray:none;stroke-opacity:1;paint-order:stroke fill markers"
       d="m 130.09642,378.98906 c 17.16138,8.87469 22.79101,16.49936 29.95494,30.95942 4.42179,8.92518 35.25324,-24.27082 40.53078,-32.27002 5.27753,-7.99921 -25.03259,-29.48487 -29.5312,-36.63736 -4.49861,-7.15249 -7.95585,-10.55037 -23.05549,-20.83752 -13.26831,-9.03949 -29.58867,-18.19504 -35.94409,-18.52465 -6.35541,-0.32961 -8.18308,5.51618 -5.64285,9.76825 2.54023,4.25207 14.79689,13.35458 20.11928,17.08835 2.6685,1.87201 3.11196,2.40719 2.09429,3.6767 -1.01768,1.26952 -3.04658,-0.95166 -7.65862,-3.91269 -17.93271,-11.51321 -24.730294,-17.92503 -25.368105,-42.23111 -0.166917,-6.36097 -0.153986,-12.8666 -0.153097,-19.02395 0.0018,-12.2518 -0.04413,-23.12471 -1.649406,-28.73549 -2.412035,-8.43058 -14.813833,-7.48983 -16.230973,-0.36354 -1.41714,7.12629 -1.623308,50.12629 -0.940521,65.16099 0.682882,15.03476 0.986857,40.6995 17.139057,53.0829 16.152195,12.38338 19.174625,13.92502 36.336005,22.79972 z m 192.09664,0 c -17.16138,8.87469 -22.79101,16.49936 -29.95494,30.95942 -4.42179,8.92518 -35.25324,-24.27082 -40.53078,-32.27002 -5.27753,-7.99921 25.03259,-29.48487 29.5312,-36.63736 4.49861,-7.15249 7.95585,-10.55037 23.05549,-20.83752 13.26831,-9.03949 29.58868,-18.19504 35.94409,-18.52465 6.35542,-0.32961 8.18308,5.51618 5.64286,9.76825 -2.54023,4.25207 -14.79689,13.35458 -20.11928,17.08835 -2.6685,1.87201 -3.11196,2.40719 -2.09429,3.6767 1.01768,1.26952 3.04658,-0.95166 7.65862,-3.91269 17.9327,-11.51321 24.73029,-17.92503 25.3681,-42.23111 0.16692,-6.36097 0.15398,-12.8666 0.1531,-19.02395 -0.002,-12.2518 0.0441,-23.12471 1.6494,-28.73549 2.41204,-8.43058 14.81383,-7.48983 16.23097,-0.36354 1.41714,7.12629 1.62331,50.12629 0.94053,65.16099 -0.68289,15.03476 -0.98686,40.6995 -17.13906,53.0829 -16.1522,12.38338 -19.17463,13.92502 -36.33601,22.79972 z"
       id="path5"
       sodipodi:nodetypes="zszzszzszsssszzzz"
       inkscape:path-effect="#path-effect4"
       inkscape:original-d="m 130.09642,378.98906 c 17.16138,8.87469 22.79101,16.49936 29.95494,30.95942 4.42179,8.92518 35.25324,-24.27082 40.53078,-32.27002 5.27753,-7.99921 -25.03259,-29.48487 -29.5312,-36.63736 -4.49861,-7.15249 -7.95585,-10.55037 -23.05549,-20.83752 -13.26831,-9.03949 -29.58867,-18.19504 -35.94409,-18.52465 -6.35541,-0.32961 -8.18308,5.51618 -5.64285,9.76825 2.54023,4.25207 14.79689,13.35458 20.11928,17.08835 2.6685,1.87201 3.11196,2.40719 2.09429,3.6767 -1.01768,1.26952 -3.04658,-0.95166 -7.65862,-3.91269 -17.93271,-11.51321 -24.730294,-17.92503 -25.368105,-42.23111 -0.166917,-6.36097 -0.153986,-12.8666 -0.153097,-19.02395 0.0018,-12.2518 -0.04413,-23.12471 -1.649406,-28.73549 -2.412035,-8.43058 -14.813833,-7.48983 -16.230973,-0.36354 -1.41714,7.12629 -1.623308,50.12629 -0.940521,65.16099 0.682882,15.03476 0.986857,40.6995 17.139057,53.0829 16.152195,12.38338 19.174625,13.92502 36.336005,22.79972 z"
       transform="translate(7.4651998,-9.9078087)"
       inkscape:label="hands" />
    <path
       style="fill:#449dd1;fill-opacity:1;stroke:none;stroke-width:19.685;stroke-dasharray:none;stroke-opacity:1;paint-order:stroke fill markers"
       d="M 216.37934,102.9359 88.071182,180.23755 a 9.2183911,9.2183911 119.46618 0 0 -4.461243,7.89609 l 0,15.17389 a 2.9426759,2.9426759 29.466179 0 0 4.461243,2.52057 L 216.37938,128.52645 a 8.6383887,8.6383887 0.01934255 0 1 8.92067,0.003 l 128.10244,77.29563 a 2.9403568,2.9403568 150.55316 0 0 4.45943,-2.51756 l 0,-15.17389 a 9.2256591,9.2256591 60.55316 0 0 -4.45943,-7.8991 L 225.30001,102.93891 a 8.6383887,8.6383887 0.01933516 0 0 -8.92067,-0.003 z"
       id="path2"
       sodipodi:nodetypes="ccccccc"
       inkscape:path-effect="#path-effect5"
       inkscape:original-d="M 220.84058,100.24814 83.609939,182.92531 v 25.59055 l 137.230681,-82.67717 137.0213,82.67717 v -25.59055 z"
       inkscape:label="roof"
       transform="matrix(1.0938846,0,0,1,-7.8496924,0)" />
    <path
       style="display:inline;fill:#449dd1;fill-opacity:1;stroke:none;stroke-width:4.59353;stroke-linecap:round;stroke-linejoin:round;stroke-dasharray:none;stroke-opacity:1;paint-order:stroke fill markers"
       d="m 80.268481,135.28591 v -14.07054 a 2.1465677,2.1465677 119.51824 0 1 1.042175,-1.84067 l 22.915874,-13.7494 a 2.0256434,2.0256434 179.99993 0 1 2.08436,0 l 22.916,13.7494 a 2.1465619,2.1465619 60.481696 0 1 1.04218,1.84067 v 14.07054 c 0,0.67123 -0.38262,1.60526 -0.90956,2.02042 -4.60348,3.62692 -12.44503,4.04732 -16.88639,11.6262 -0.33894,0.5784 -1.12232,1.06731 -1.79355,1.06731 H 99.857977 c -0.671232,0 -1.454858,-0.48944 -1.794211,-1.06842 -4.4418,-7.57837 -12.28363,-7.99841 -16.886738,-11.62589 -0.526335,-0.41478 -0.908547,-1.34839 -0.908547,-2.01962 z"
       id="path1"
       sodipodi:nodetypes="cccccccc"
       clip-path="none"
       transform="matrix(4.7243671,0,0,4.2853828,-263.7184,-306.96731)"
       inkscape:path-effect="#path-effect6"
       inkscape:original-d="M 80.268481,136.50128 V 120 l 25.000229,-15 25.00036,15 v 16.50128 c -4.59353,4.59354 -13.7806,4.31149 -18.37413,13.49856 H 98.642605 c -4.593531,-9.18707 -13.780593,-8.90502 -18.374124,-13.49856 z"
       inkscape:label="body" />
  </g>
  <g
     inkscape:groupmode="layer"
     id="layer3"
     inkscape:label="Layer 2"
     transform="translate(-83.609939,-101.6968)"
     style="display:inline">
    <circle
       style="display:inline;opacity:1;fill:#ffffff;fill-opacity:1;stroke:none;stroke-width:43.672;stroke-linecap:butt;stroke-linejoin:round;stroke-dasharray:none;stroke-opacity:1;paint-order:stroke fill markers"
       id="circle40"
       cx="233.60994"
       cy="240.13995"
       r="29.527561"
       inkscape:label="lens" />
  </g>
</svg>
