<?xml version="1.0" encoding="UTF-8" standalone="no"?>
<!DOCTYPE svg PUBLIC "-//W3C//DTD SVG 1.1//EN" "http://www.w3.org/Graphics/SVG/1.1/DTD/svg11.dtd">
<svg width="100%" height="100%" viewBox="0 0 512 512" version="1.1" xmlns="http://www.w3.org/2000/svg" xmlns:xlink="http://www.w3.org/1999/xlink" xml:space="preserve" xmlns:serif="http://www.serif.com/" style="fill-rule:evenodd;clip-rule:evenodd;stroke-linejoin:round;stroke-miterlimit:2;">
    <style type="text/css">
        @media (prefers-color-scheme: dark) { :root { filter: invert(100%); } }
    </style>
    <g transform="matrix(1.01611,0,0,1.01611,-0.872372,-1.2689)">
        <path d="M252.8,1.249C391.85,1.249 504.741,114.14 504.741,253.19C504.741,392.241 391.85,505.132 252.8,505.132C113.75,505.132 0.859,392.241 0.859,253.19C0.859,114.14 113.75,1.249 252.8,1.249ZM252.8,32.741C131.131,32.741 32.351,131.521 32.351,253.19C32.351,374.859 131.131,473.639 252.8,473.639C374.469,473.639 473.249,374.859 473.249,253.19C473.249,131.521 374.469,32.741 252.8,32.741Z"/>
    </g>
    <path d="M0,256C94.69,256 256,94.69 256,0C256,94.69 417.31,256 512,256C417.31,256 256,417.31 256,512C256,417.31 94.69,256 0,256ZM204.94,256C213.993,263.838 222.836,272.054 231.391,280.609C239.946,289.164 248.162,298.007 256,307.06C263.838,298.007 272.054,289.164 280.609,280.609C289.164,272.054 298.007,263.838 307.06,256C298.007,248.162 289.164,239.946 280.609,231.391C272.054,222.836 263.838,213.993 256,204.94C248.162,213.993 239.946,222.836 231.391,231.391C222.836,239.946 213.993,248.162 204.94,256Z"/>
</svg>
