<?xml version="1.0" encoding="UTF-8" standalone="no"?>
<!DOCTYPE svg PUBLIC "-//W3C//DTD SVG 1.1//EN" "http://www.w3.org/Graphics/SVG/1.1/DTD/svg11.dtd">
<svg width="100%" height="100%" viewBox="0 0 1000 1000" version="1.1" xmlns="http://www.w3.org/2000/svg" xmlns:xlink="http://www.w3.org/1999/xlink" xml:space="preserve" xmlns:serif="http://www.serif.com/" style="fill-rule:evenodd;clip-rule:evenodd;stroke-linejoin:round;stroke-miterlimit:2;">
    <g transform="matrix(1.084151,0,0,1.084151,-32.858015,-65.375549)">
        <circle cx="491.498" cy="521.492" r="461.19" style="fill:rgb(92,78,63);"/>
    </g>
    <g transform="matrix(1,0,0,1,-513.50694,-500.079182)">
        <g transform="matrix(0.965926,-0.258819,0.258819,0.965926,311.14081,601.627916)">
            <g transform="matrix(1.137135,-0,0,2.630233,-68.350823,-295.680096)">
                <path d="M694.96,169.319L694.96,207.339C694.96,217.83 675.258,226.348 650.99,226.348L364.925,226.348C340.657,226.348 320.955,217.83 320.955,207.339L320.955,169.319C320.955,158.827 340.657,150.309 364.925,150.309L650.99,150.309C675.258,150.309 694.96,158.827 694.96,169.319Z" style="fill:rgb(255,253,244);"/>
            </g>
            <g transform="matrix(1.137135,-0,0,2.630233,-68.350823,-45.341776)">
                <path d="M694.96,169.319L694.96,207.339C694.96,217.83 675.258,226.348 650.99,226.348L364.925,226.348C340.657,226.348 320.955,217.83 320.955,207.339L320.955,169.319C320.955,158.827 340.657,150.309 364.925,150.309L650.99,150.309C675.258,150.309 694.96,158.827 694.96,169.319Z" style="fill:rgb(255,253,244);"/>
            </g>
            <g transform="matrix(2.9,-0,-0,2.018351,-410.081302,-712.088686)">
                <path d="M278.515,427.072L278.515,778.941C278.515,792.613 270.789,803.714 261.273,803.714L226.79,803.714C217.275,803.714 209.549,792.613 209.549,778.941L209.549,427.072C209.549,413.399 217.275,402.299 226.79,402.299L261.273,402.299C270.789,402.299 278.515,413.399 278.515,427.072Z" style="fill:rgb(255,253,244);"/>
            </g>
        </g>
        <g transform="matrix(0.965926,-0.258819,0.258819,0.965926,524.98704,592.558589)">
            <g transform="matrix(1.953368,0,0,1.953368,-942.116187,-560.089788)">
                <path d="M747.79,442.087C818.426,442.087 875.774,499.434 875.774,570.071C875.774,640.707 818.426,698.055 747.79,698.055C677.153,698.055 619.805,640.707 619.805,570.071C619.805,499.434 677.153,442.087 747.79,442.087ZM747.79,550.308C758.697,550.308 767.552,559.164 767.552,570.071C767.552,580.978 758.697,589.833 747.79,589.833C736.882,589.833 728.027,580.978 728.027,570.071C728.027,559.164 736.882,550.308 747.79,550.308Z" style="fill:rgb(255,253,244);"/>
            </g>
            <g transform="matrix(2.9,-0,-0,1.735159,-338.657349,-394.312212)">
                <path d="M278.515,431.115L278.515,774.898C278.515,790.802 270.789,803.714 261.273,803.714L226.79,803.714C217.275,803.714 209.549,790.802 209.549,774.898L209.549,431.115C209.549,415.211 217.275,402.299 226.79,402.299L261.273,402.299C270.789,402.299 278.515,415.211 278.515,431.115Z" style="fill:rgb(255,253,244);"/>
            </g>
            <g transform="matrix(-0,-2.9,0.726262,0,-23.135102,1111.433573)">
                <path d="M278.515,471.145L278.515,734.868C278.515,772.865 270.789,803.714 261.273,803.714L226.79,803.714C217.275,803.714 209.549,772.865 209.549,734.868L209.549,471.145C209.549,433.148 217.275,402.299 226.79,402.299L261.273,402.299C270.789,402.299 278.515,433.148 278.515,471.145Z" style="fill:rgb(255,253,244);"/>
            </g>
            <g transform="matrix(2.221529,-1.864084,0.679192,0.80943,-392.492205,783.414464)">
                <path d="M278.515,449.619L278.515,756.394C278.515,782.51 270.789,803.714 261.273,803.714L226.79,803.714C217.275,803.714 209.549,782.51 209.549,756.394L209.549,449.619C209.549,423.502 217.275,402.299 226.79,402.299L261.273,402.299C270.789,402.299 278.515,423.502 278.515,449.619Z" style="fill:rgb(255,253,244);"/>
            </g>
        </g>
    </g>
</svg>
